# xmcd
#
# Track frame offsets: 
#        150
#        16558
#        31931
#        47884
#        62924
#        76230
#        86577
#        95081
#        121672
#        135163
#        143944
#
# Disc length: 2104 seconds
#
# Revision: 0
# Processed by: cddbd v1.5.2PL0 Copyright (c) Steve Scherf et al.
# Submitted via: ExactAudioCopy v1.0b4
#
DISCID=8208360b
DTITLE=Ike and Tina Turner - Workin' Together (LP)
DYEAR=1900
DGENRE=Blues
TTITLE0=Come Together
TTITLE1=I Heard It Through The Grapevine
TTITLE2=Workin' Together
TTITLE3=Sweet Rhode Island Red
TTITLE4=Sexy Ida (Part II)
TTITLE5=River Deep, Mountain High (Live)
TTITLE6=Funky Street
TTITLE7=I've Been Loving You Too Long
TTITLE8=Acid Queen
TTITLE9=Goodbye, So Long
TTITLE10=Let It Be
EXTD=
EXTT0=
EXTT1=
EXTT2=
EXTT3=
EXTT4=
EXTT5=
EXTT6=
EXTT7=
EXTT8=
EXTT9=
EXTT10=
PLAYORDER=
